Patient4_TMGait_0pt8_01_left_35_EMG.mot
version=1
nRows=40
nColumns=33
inDegrees=no
endheader
time	1LAddLong	2LGlutMax	3LGlutMed	4LIliopsoas	5LSemiMemb	6LBicFemLong	7LRecFem	8LVastMed	9LVastLat	10LGasMed	11LTibAnt	12lTibPost	13LPeroneusLong	14LSol	15LExtDigLong	16LFlexDigLong	17RAddLong	18RGlutMax	19RGlutMed	20RIliopsoas	21RSemiMemb	22RBicFemLong	23RRecFem	24RVastMed	25RVastLat	26RGasMed	27RTibAnt	28RTibPost	29RPeroneusLong	30RSol	31RExtDigLong	32RFlexDigLong
39.4	0.014648	0.20645	0.28976	0.009613	0.01236	-0.054779	-0.29343	-0.005951	-0.039063	-0.11597	0.008087	0.014648	0.041656	0.18143	0.000153	0.003815	-0.059204	-0.32944	1.1519	-0.016632	0.30334	0.11917	-0.72113	-0.36118	0.52582	-0.01709	0.14236	-0.006104	-0.88867	-0.004883	0.000763	-0.015564
39.401	0.017853	0.19592	0.29739	0.013275	0.017853	-0.081787	-0.28244	-0.003967	-0.040588	-0.084076	-0.001373	0.044403	0.1181	0.043488	-0.000153	-0.010834	0.032043	-0.36819	1.0922	-0.055084	0.33981	0.11719	-0.7666	-0.67902	0.36331	-0.007172	0.10223	-0.00473	0.042419	-0.10803	0.000763	-0.009308
39.402	0.011597	0.15518	0.3598	0.015411	0.010223	-0.050354	-0.26566	0.001373	-0.040588	0.000153	-0.007019	0.19547	0.10056	0.007629	-0.012512	-0.015869	0.074768	-0.30395	1.2453	-0.081635	0.47836	0.17532	-0.74631	-0.86289	0.21591	-0.000916	0.049591	-0.003815	-0.12116	-0.12009	-0.000305	-0.002899
39.403	0.013733	0.17654	0.26871	0.011292	-0.046692	0.007019	-0.26184	-0.002136	-0.052948	0.11826	0.004425	-0.028381	0.045013	0.031128	0.000763	-0.023499	0.095215	-0.20981	0.86777	-0.047455	0.33859	0.29755	-0.61127	-0.64651	0.012512	-0.014343	-0.027008	-0.003204	-0.04425	-0.066833	0.002136	-0.001373
39.404	0.017395	0.18448	0.23697	0.018005	-0.021057	-0.00473	-0.24323	0.000458	-0.051575	0.15091	0.010529	-0.25528	-0.023193	0.099487	0.00946	0.000458	0.039368	-0.070343	0.49316	-0.054626	0.34485	0.39764	-0.61401	-0.26199	0.083008	-0.019531	-0.11322	-0.005798	0.36072	-0.001373	0.003967	-0.008392
39.405	0.012512	0.15121	0.2388	0.008545	0.013733	-0.019989	-0.23758	0.003815	-0.057068	0.13367	-0.001373	0.05249	-0.10254	0.11231	0.028229	0.004578	-0.094757	0.062714	0.4631	-0.097809	0.24567	0.48096	-0.50522	-0.04364	-0.050812	-0.022888	-0.10712	-0.000153	0.30487	-0.000153	-0.001526	-0.003357
39.406	0.006409	0.15839	0.25559	0.017853	0.010376	-0.014954	-0.21423	-0.002289	-0.060425	0.15259	-0.00473	0.056152	-0.029297	-0.04776	0.010529	-0.006256	-0.10544	0.083313	0.35767	-0.16174	0.28946	0.4657	-0.40237	0.070953	-0.19775	-0.013428	-0.071411	-0.002899	0.20966	-0.031738	0.003662	-0.00946
39.407	0.009308	0.19424	0.23773	0.017853	0.006866	-0.027161	-0.2301	-0.00061	-0.054016	0.17105	-0.00061	-0.006256	0.050659	-0.25467	-0.006866	0.005798	-0.081482	0.097198	0.55344	-0.12009	0.31311	0.48492	-0.33798	-0.082855	-0.31784	-0.014038	-0.011292	-0.002747	0.11765	-0.0177	0.000305	-0.010071
39.408	0.007629	0.15793	0.23499	-0.008392	0.013275	-0.018311	-0.24017	-0.002899	-0.054932	0.077209	-0.001831	-0.004578	0.056458	-0.27847	-0.012817	0.00946	-0.05661	0.056	0.74783	-0.10696	0.34866	0.37338	-0.47821	-0.24872	-0.27588	-0.013885	0.11581	-0.005341	0.14542	-0.036316	-0.001373	-0.007324
39.409	0.016327	0.093079	0.24689	-0.00412	0.011597	-0.028534	-0.21713	-0.003052	-0.041504	-0.006409	-0.009003	-0.006561	0.045013	-0.22339	-0.021667	0.005951	-0.029144	0.018921	1.1508	-0.075073	0.13931	0.3125	-0.55573	-0.27161	-0.072021	-0.013428	0.28809	-0.004272	0.095978	-0.060272	0.003815	-0.011749
39.41	0.018005	0.14923	0.23163	0.002441	0.014801	-0.037079	-0.22537	-0.005798	-0.045471	-0.033875	0.014496	0.00412	0.015869	0.040131	-0.0177	-0.001373	-0.040131	0.093384	1.6507	0.02243	-0.054932	0.40359	-0.66299	-0.17319	0.10712	-0.019379	0.65262	-0.001373	0	-0.076141	-0.00061	-0.011139
39.411	0.009003	0.18646	0.23285	0.000458	0.018921	0.023193	-0.21469	-0.003357	-0.050659	-0.010834	-0.011292	0.00351	0.075836	0.24277	-0.015564	0.000153	-0.074615	0.078278	0.51727	0.10254	0.050354	0.47058	-0.6958	-0.060883	-0.001831	-0.018158	0.98969	-0.004578	-0.1506	-0.11261	0.000458	-0.014496
39.412	0.005493	0.14908	0.23438	-0.012207	0.001831	0.072784	-0.20813	-0.000458	-0.057068	0.093231	0.006409	-0.003815	0.040131	0.12039	-0.008392	0.005951	-0.052185	0.040283	0.076141	0.13153	0.43121	0.44037	-0.64179	-0.081024	-0.21851	-0.012665	0.63583	0.000305	-0.16235	-0.13763	0.001984	-0.013275
39.413	-0.000458	0.11719	0.27313	0.002899	0.011139	0.02182	-0.19623	-0.003662	-0.053406	0.2446	0.006866	0.002136	0.017242	0.050964	0.002899	0.002441	-0.055542	-0.000763	0.1561	0.18036	0.73471	0.40771	-0.66254	-0.24414	-0.22476	-0.015106	0.16083	-0.004578	-0.2002	-0.15762	0.002747	-0.019684
39.414	0.018616	0.19363	0.27557	0.028229	0.007935	-0.006561	-0.21072	-0.002289	-0.046844	0.098572	0.014191	-0.002594	0.001221	0.11063	-0.003967	-0.010071	-0.010834	0.072327	0.64316	0.11566	0.67413	0.33707	-0.48889	-0.32562	-0.15762	-0.013123	-0.28046	-0.003052	-0.1709	-0.15533	0.001221	-0.011139
39.415	0.006409	0.14923	0.24872	-0.001221	-0.003357	-0.011139	-0.20294	-0.001831	-0.040894	0.028992	0.022125	0.005646	0.026245	0.1683	-0.020905	-0.010834	0.050812	0.007935	0.86578	0.084534	0.37933	0.19806	-0.39169	-0.3801	0.19043	-0.016785	-0.45471	-0.001526	0.05188	-0.09903	-0.003052	-0.003204
39.416	0.002136	0.17792	0.26916	-0.005188	-0.014496	0.039368	-0.17319	0.004272	-0.044861	0.050507	0.003357	0.000305	0.04364	0.018616	-0.007477	-0.012817	0.08606	-0.024872	0.29236	-0.023651	0.22171	0.15503	-0.36301	-0.28641	0.31296	0.006714	-0.12299	-0.007172	0.30502	-0.12497	-0.008545	-0.002747
39.417	0.003357	0.13382	0.26871	-0.007172	-0.026093	0.039825	-0.15595	-0.003662	-0.047302	0.038452	0.000458	0	0.046692	0.002136	0.006561	-0.022125	0.041504	0.098572	0.36804	-0.088806	-0.15564	0.23468	-0.30884	-0.19852	0.087585	-0.010681	-0.20187	-0.002594	0.26871	-0.13397	0.000458	-0.002441
39.418	0.008087	0.084534	0.26916	-0.015411	-0.017242	0.032501	-0.15884	0.001526	-0.034485	0.048065	0.005188	0.009613	0.026093	-0.042114	0.005188	-0.020905	-0.006714	0.15137	0.62485	-0.12344	-0.20981	0.31357	-0.33371	-0.18814	-0.17548	-0.007324	-0.82016	0.000458	0.32684	-0.18616	-0.000153	-0.003052
39.419	0.010834	0.12573	0.25513	-0.00473	-0.005035	-0.009918	-0.15106	-0.000458	-0.035858	0.032043	-0.002441	0.014954	0.010681	-0.082855	0.003815	-0.023956	-0.030518	0.1033	0.52322	-0.057983	0.22964	0.26428	-0.50995	-0.021973	-0.31586	0.003357	-0.81497	0.000153	0.32898	-0.24841	-0.004272	0.002594
39.42	0.02243	0.13031	0.24658	0.027466	-0.006866	-0.023499	-0.12146	0.006256	-0.036621	0.02594	-0.042725	0.002899	0.0177	-0.067596	0.009003	-0.007477	0.005646	-0.013275	0.19806	0.10086	0.45868	0.058594	-0.65659	0.12711	-0.14481	0.00412	-0.71671	-0.002594	0.18265	-0.23819	0.002594	0
39.421	0.017548	0.10635	0.27908	0.032196	-0.009918	-0.023041	-0.10727	0.002441	-0.02594	0.015564	-0.031281	-0.006561	0.02182	0.059052	0.010986	-0.016327	0.057373	-0.09613	-0.12131	0.15595	0.53558	0.027618	-0.68314	0.066681	0.075684	-0.010681	-0.62973	-0.007935	-0.12772	-0.12253	0.002899	-0.00061
39.422	0.010834	0.045776	0.29053	0.020599	-0.015564	-0.036316	-0.10773	0.002136	-0.014648	0.014801	-0.048218	-0.000458	0.005646	0.097961	0.055847	-0.000763	0.11536	-0.072784	-0.037842	0.17624	0.345	0.042572	-0.48401	-0.049133	0.87387	-0.011292	-0.36026	-0.011292	-0.24246	-0.061646	-0.001068	-0.001526
39.423	0.004425	0.069122	0.27313	0.013275	-0.010834	-0.045319	-0.083771	-0.002899	-0.011292	-0.001984	-0.06897	-0.001373	-0.001831	0.11169	0.14389	-0.007019	0.17425	-0.14526	-0.25665	0.078583	0.38437	0.14954	-0.36468	0.12634	0.8081	-0.007629	0.19196	-0.002441	-0.20981	-0.052032	-0.001526	0.000458
39.424	0.017853	0.058441	0.26596	0.006256	-0.002289	-0.076294	-0.071716	-0.001526	-0.005951	-0.018311	-0.017853	0.001678	0.033264	0.10117	0.090027	-0.003815	0.10208	-0.30487	-0.13825	-0.035248	0.089722	0.40085	-0.36041	0.46509	0.5011	-0.005951	0.62225	-0.001526	-0.12253	-0.11017	-0.001678	-0.001221
39.425	0.008087	0.087433	0.2861	0.000458	0.00061	-0.064545	-0.045624	-0.00473	-0.002747	0.001526	0.07782	0.000153	0.009155	0.066528	0.044861	-0.00351	0.12955	-0.52689	-0.27222	-0.18478	-0.15717	0.39993	-0.31448	0.31403	0.10254	-0.000458	0.31937	-0.006409	0.30701	-0.06073	0.002136	-0.006104
39.426	-0.001984	0.024567	0.28961	0.002899	0.002289	-0.023956	-0.020294	-0.001068	-0.016632	0.027618	0.054016	-0.005646	0.005493	0.055847	0.002289	0.002594	0.18051	-0.48614	-0.22736	-0.25421	0.033569	0.27802	-0.35309	0.25192	-0.063171	-0.024109	-0.31342	-0.009766	0.13367	0.040741	0.001984	-0.009155
39.427	-0.000763	-0.000763	0.27069	0.011444	0.002747	-0.00351	-0.015106	-0.000153	-0.021973	0.025787	0.042419	0.001984	0.029602	0.10254	0.025177	0.009613	0.20432	-0.42358	-0.53467	-0.1387	-0.047302	0.27466	-0.31784	0.15961	-0.051117	-0.022888	-0.91095	-0.006409	0.41794	0.036926	0.000305	-0.005188
39.428	0.018005	-0.029755	0.26642	0.012054	-0.004425	0.020752	-0.009308	0.004425	-0.023956	0.023346	0.063629	0.007629	0.045166	0.16052	-0.00885	-0.006561	0.14633	-0.27618	-1.1763	0.017548	-0.084686	0.29648	-0.2356	-0.062408	0.22278	-0.020752	-0.70053	-0.001526	0.55115	0.04715	0.002289	-0.005493
39.429	0.006561	-0.043945	0.2623	0.00946	-0.007782	0.010529	-0.034637	-0.000916	-0.026245	0.011749	0.065918	0.013428	0.020294	0.14587	-0.11505	-0.00412	-0.012512	-0.23163	-1.8106	0.17868	-0.22492	0.55283	-0.16769	-0.11108	0.16632	-0.01236	-0.57587	0.002136	0.28015	-0.002441	0.001526	-0.001831
39.43	0.017395	-0.021057	0.27054	0.007019	-0.011902	0.050354	-0.011444	0.000916	-0.0177	-0.017395	0.044098	0.012817	0.049744	0.077972	-0.1799	-0.00412	-0.029907	-0.16037	-1.245	0.3891	-0.39322	0.5159	-0.041962	0.15213	0.18234	0.010834	-0.28473	-0.000458	0.22003	-0.10727	0.001678	0.001373
39.431	0.015411	-0.041199	0.26794	0.022888	-0.019073	0.044861	-0.016937	-0.000916	-0.023193	0.13229	0.010376	-0.003204	0.036316	0.04776	-0.13382	0.003357	-0.018311	-0.078278	-0.23239	0.22324	0.025787	0.30594	0.13397	-0.092468	0.042725	0.011597	0.50384	-0.001984	0.44861	-0.09552	0.000458	0.003815
39.432	0.003815	-0.041962	0.27863	0.028229	-0.010986	0.025482	-0.036163	-0.003052	-0.016785	0.46478	0.023651	0.004425	0.038147	0.060883	-0.084229	-0.00061	0.005188	-0.025482	0.6929	0.10635	0.11185	0.11414	0.29877	-0.24674	-0.30899	-0.000763	0.69443	-0.004425	0.28259	-0.009308	-0.002899	0.010986
39.433	0.021362	-0.039825	0.27084	0.020142	0.004425	0.026093	-0.030518	-0.00412	-0.007629	0.62439	-0.014343	-0.005035	-0.012207	0.06424	-0.066528	0.001678	-0.006561	0.12589	0.90729	0.028076	0.38528	-0.018158	0.10101	-0.18433	-0.28275	-0.000458	0.31448	-0.004578	-0.061646	0.052948	0.00061	0.005951
39.434	0.022888	-0.090027	0.27023	0.005493	-0.007629	0.021362	-0.018005	-0.000763	-0.005646	0.35782	-0.056458	0.005035	-0.025635	0.028381	-0.079803	-0.005493	0.015869	0.1033	-0.32105	0.068665	0.62073	-0.000916	-0.19348	-0.12863	-0.10101	-0.011139	-0.12848	-0.014343	-0.30441	0.12405	-0.00061	-0.003357
39.435	0.012512	-0.087585	0.26962	0.000763	-0.042419	0.041199	0.002747	-0.002747	-0.024872	0.31387	-0.049286	-0.005798	-0.019836	-0.024414	-0.067596	0.008545	0.029755	0.1973	-0.41184	0.032501	0.29327	0.10681	-0.16342	0.5542	-0.22385	-0.023041	-0.40604	-0.008698	-0.18188	0.31632	-0.001984	-0.001221
39.436	0.022888	-0.074615	0.27725	-0.001373	-0.059662	0.016022	-0.01297	-0.005951	-0.004883	0.15564	-0.03067	0.005035	-0.084076	-0.004425	-0.004578	0.015717	-0.029297	0.30945	-0.30807	-0.068054	-0.057373	0.18509	0.27924	0.27618	-0.41931	-0.01709	-0.22049	-0.001984	-0.41702	0.21866	-0.00061	-0.00412
39.437	0.025787	-0.065765	0.30289	-0.000458	-0.025024	0.011292	-0.015411	0.002594	-0.00946	-0.24765	-0.019836	0.009155	-0.16892	0.054321	0.14587	-0.003052	-0.13367	0.35553	-0.012054	-0.088959	-0.12131	0.19119	0.52841	-0.18723	0.023651	-0.009918	0.005035	-0.010071	-0.10544	0.12619	-0.001526	0.000458
39.438	0.015259	-0.073547	0.29129	-0.000305	0.021057	0.019226	0.00473	0.023651	-0.012207	0.16815	0.005798	0.016785	-0.10849	0.13672	0.11505	-0.003357	-0.049438	0.40726	0.60028	-0.04837	-0.11322	0.09491	0.57617	-0.31967	0.40955	-0.013275	-0.26321	-0.005341	0.19211	0.25696	-0.002136	-0.002594
39.439	-0.001526	-0.090179	0.29495	-0.003052	0.031738	-0.022583	0.007477	-0.005951	-0.013123	1.0994	0.060272	-0.014954	-0.011444	0.26566	0.089874	-0.010681	0.037994	0.53665	0.33112	-0.043793	0.15167	-0.024414	0.40665	-0.1712	0.4184	-0.009613	-0.36865	-0.007172	0.12878	0.093994	-0.00061	-0.002594
